999
dxfrw 0.5.10
0
SECTION
2
HEADER
9
$ACADVER
1
AC1021
9
$HANDSEED
5
20000
9
$DWGCODEPAGE
3
ANSI_1252
9
$INSBASE
10
0
20
0
30
0
9
$EXTMIN
10
3
20
-7.25
30
0
9
$EXTMAX
10
314.25
20
177
30
0
9
$LIMMIN
10
0
20
0
9
$LIMMAX
10
420
20
297
9
$ORTHOMODE
70
0
9
$LTSCALE
40
1
9
$TEXTSTYLE
7
STANDARD
9
$CLAYER
8
Comments
9
$DIMASZ
40
2.5
9
$DIMLFAC
40
1
9
$DIMSCALE
40
1
9
$DIMEXO
40
0.625
9
$DIMEXE
40
1.25
9
$DIMTXT
40
2.5
9
$DIMTSZ
40
0
9
$DIMAUNIT
70
0
9
$DIMADEC
70
2
9
$DIMLUNIT
70
2
9
$DIMSTYLE
2
STANDARD
9
$DIMGAP
40
0.625
9
$DIMTIH
70
0
9
$LUNITS
70
2
9
$LUPREC
70
4
9
$AUNITS
70
0
9
$AUPREC
70
2
9
$SPLINESEGS
70
8
9
$GRIDMODE
70
1
9
$SNAPSTYLE
70
0
9
$GRIDUNIT
10
0.1
20
0.1
9
$PINSBASE
10
0
20
0
30
0
9
$PLIMMIN
10
0
20
0
9
$PLIMMAX
10
210
20
297
9
$INSUNITS
70
4
9
$PSVPSCALE
40
1
0
ENDSEC
0
SECTION
2
CLASSES
0
ENDSEC
0
SECTION
2
TABLES
0
TABLE
2
VPORT
5
8
330
0
100
AcDbSymbolTable
70
1
0
VPORT
5
31
330
2
100
AcDbSymbolTableRecord
100
AcDbViewportTableRecord
2
*ACTIVE
70
0
10
0
20
0
11
1
21
1
12
146.500000001
22
48.9000000004
13
0
23
0
14
10
24
10
15
0.1
25
0.1
16
0
26
0
36
1
17
0
27
0
37
0
40
104.600000001
41
1.75908221797
42
50
43
0
44
0
50
0
51
0
71
0
72
100
73
1
74
3
75
0
76
1
77
0
78
0
281
0
65
1
110
0
120
0
130
0
111
1
121
0
131
0
112
0
122
1
132
0
79
0
146
0
348
10020
60
3
61
5
292
1
282
1
141
0
142
0
63
250
421
3358443
0
ENDTAB
0
TABLE
2
LTYPE
5
5
330
0
100
AcDbSymbolTable
70
4
0
LTYPE
5
14
330
5
100
AcDbSymbolTableRecord
100
AcDbLinetypeTableRecord
2
ByBlock
70
0
3

72
65
73
0
40
0
0
LTYPE
5
15
330
5
100
AcDbSymbolTableRecord
100
AcDbLinetypeTableRecord
2
ByLayer
70
0
3

72
65
73
0
40
0
0
LTYPE
5
16
330
5
100
AcDbSymbolTableRecord
100
AcDbLinetypeTableRecord
2
Continuous
70
0
3
Solid line
72
65
73
0
40
0
0
LTYPE
5
32
330
5
100
AcDbSymbolTableRecord
100
AcDbLinetypeTableRecord
2
DOT
70
0
3
Dot . . . . . . . . . . . . . . . . . . . . . .
72
65
73
2
40
6.35
49
0
74
0
49
-6.35
74
0
0
LTYPE
5
33
330
5
100
AcDbSymbolTableRecord
100
AcDbLinetypeTableRecord
2
DOT2
70
0
3
Dot (.5x) .....................................
72
65
73
2
40
3.175
49
0
74
0
49
-3.175
74
0
0
LTYPE
5
34
330
5
100
AcDbSymbolTableRecord
100
AcDbLinetypeTableRecord
2
DOTX2
70
0
3
Dot (2x) .  .  .  .  .  .  .  .  .  .  .  .  .
72
65
73
2
40
12.7
49
0
74
0
49
-12.7
74
0
0
LTYPE
5
35
330
5
100
AcDbSymbolTableRecord
100
AcDbLinetypeTableRecord
2
DASHED
70
0
3
Dot . . . . . . . . . . . . . . . . . . . . . .
72
65
73
2
40
19.05
49
12.7
74
0
49
-6.35
74
0
0
LTYPE
5
36
330
5
100
AcDbSymbolTableRecord
100
AcDbLinetypeTableRecord
2
DASHED2
70
0
3
Dashed (.5x) _ _ _ _ _ _ _ _ _ _ _ _ _ _ _ _ _
72
65
73
2
40
9.525
49
6.35
74
0
49
-3.175
74
0
0
LTYPE
5
37
330
5
100
AcDbSymbolTableRecord
100
AcDbLinetypeTableRecord
2
DASHEDX2
70
0
3
Dashed (2x) ____  ____  ____  ____  ____  ___
72
65
73
2
40
38.1
49
25.4
74
0
49
-12.7
74
0
0
LTYPE
5
38
330
5
100
AcDbSymbolTableRecord
100
AcDbLinetypeTableRecord
2
DASHDOT
70
0
3
Dash dot __ . __ . __ . __ . __ . __ . __ . __
72
65
73
4
40
25.4
49
12.7
74
0
49
-6.35
74
0
49
0
74
0
49
-6.35
74
0
0
LTYPE
5
39
330
5
100
AcDbSymbolTableRecord
100
AcDbLinetypeTableRecord
2
DASHDOT2
70
0
3
Dash dot (.5x) _._._._._._._._._._._._._._._.
72
65
73
4
40
12.7
49
6.35
74
0
49
-3.175
74
0
49
0
74
0
49
-3.175
74
0
0
LTYPE
5
3A
330
5
100
AcDbSymbolTableRecord
100
AcDbLinetypeTableRecord
2
DASHDOTX2
70
0
3
Dash dot (2x) ____  .  ____  .  ____  .  ___
72
65
73
4
40
50.8
49
25.4
74
0
49
-12.7
74
0
49
0
74
0
49
-12.7
74
0
0
LTYPE
5
3B
330
5
100
AcDbSymbolTableRecord
100
AcDbLinetypeTableRecord
2
DIVIDE
70
0
3
Divide ____ . . ____ . . ____ . . ____ . . ____
72
65
73
6
40
31.75
49
12.7
74
0
49
-6.35
74
0
49
0
74
0
49
-6.35
74
0
49
0
74
0
49
-6.35
74
0
0
LTYPE
5
3C
330
5
100
AcDbSymbolTableRecord
100
AcDbLinetypeTableRecord
2
DIVIDE2
70
0
3
Divide (.5x) __..__..__..__..__..__..__..__.._
72
65
73
6
40
15.875
49
6.35
74
0
49
-3.175
74
0
49
0
74
0
49
-3.175
74
0
49
0
74
0
49
-3.175
74
0
0
LTYPE
5
3D
330
5
100
AcDbSymbolTableRecord
100
AcDbLinetypeTableRecord
2
DIVIDEX2
70
0
3
Divide (2x) ________  .  .  ________  .  .  _
72
65
73
6
40
63.5
49
25.4
74
0
49
-12.7
74
0
49
0
74
0
49
-12.7
74
0
49
0
74
0
49
-12.7
74
0
0
LTYPE
5
3E
330
5
100
AcDbSymbolTableRecord
100
AcDbLinetypeTableRecord
2
BORDER
70
0
3
Border __ __ . __ __ . __ __ . __ __ . __ __ .
72
65
73
6
40
44.45
49
12.7
74
0
49
-6.35
74
0
49
12.7
74
0
49
-6.35
74
0
49
0
74
0
49
-6.35
74
0
0
LTYPE
5
3F
330
5
100
AcDbSymbolTableRecord
100
AcDbLinetypeTableRecord
2
BORDER2
70
0
3
Border (.5x) __.__.__.__.__.__.__.__.__.__.__.
72
65
73
6
40
22.225
49
6.35
74
0
49
-3.175
74
0
49
6.35
74
0
49
-3.175
74
0
49
0
74
0
49
-3.175
74
0
0
LTYPE
5
40
330
5
100
AcDbSymbolTableRecord
100
AcDbLinetypeTableRecord
2
BORDERX2
70
0
3
Border (2x) ____  ____  .  ____  ____  .  ___
72
65
73
6
40
88.9
49
25.4
74
0
49
-12.7
74
0
49
25.4
74
0
49
-12.7
74
0
49
0
74
0
49
-12.7
74
0
0
LTYPE
5
41
330
5
100
AcDbSymbolTableRecord
100
AcDbLinetypeTableRecord
2
CENTER
70
0
3
Center ____ _ ____ _ ____ _ ____ _ ____ _ ____
72
65
73
4
40
50.8
49
31.75
74
0
49
-6.35
74
0
49
6.35
74
0
49
-6.35
74
0
0
LTYPE
5
42
330
5
100
AcDbSymbolTableRecord
100
AcDbLinetypeTableRecord
2
CENTER2
70
0
3
Center (.5x) ___ _ ___ _ ___ _ ___ _ ___ _ ___
72
65
73
4
40
28.575
49
19.05
74
0
49
-3.175
74
0
49
3.175
74
0
49
-3.175
74
0
0
LTYPE
5
43
330
5
100
AcDbSymbolTableRecord
100
AcDbLinetypeTableRecord
2
CENTERX2
70
0
3
Center (2x) ________  __  ________  __  _____
72
65
73
4
40
101.6
49
63.5
74
0
49
-12.7
74
0
49
12.7
74
0
49
-12.7
74
0
0
ENDTAB
0
TABLE
2
LAYER
5
2
330
0
100
AcDbSymbolTable
70
1
0
LAYER
5
10
330
2
100
AcDbSymbolTableRecord
100
AcDbLayerTableRecord
2
0
70
0
62
7
6
CONTINUOUS
370
0
390
F
0
LAYER
5
44
330
2
100
AcDbSymbolTableRecord
100
AcDbLayerTableRecord
2
Cutting
70
0
62
5
6
CONTINUOUS
370
5
390
F
0
LAYER
5
45
330
2
100
AcDbSymbolTableRecord
100
AcDbLayerTableRecord
2
Comments
70
0
62
2
6
CONTINUOUS
370
5
390
F
0
LAYER
5
46
330
2
100
AcDbSymbolTableRecord
100
AcDbLayerTableRecord
2
Line_Engraving
70
0
62
3
6
CONTINUOUS
370
5
390
F
0
ENDTAB
0
TABLE
2
STYLE
5
3
330
0
100
AcDbSymbolTable
70
3
0
STYLE
5
47
330
2
100
AcDbSymbolTableRecord
100
AcDbTextStyleTableRecord
2
Standard
70
0
40
0
41
1
50
0
71
0
42
1
3
txt
4

0
ENDTAB
0
TABLE
2
VIEW
5
6
330
0
100
AcDbSymbolTable
70
0
0
ENDTAB
0
TABLE
2
UCS
5
7
330
0
100
AcDbSymbolTable
70
0
0
ENDTAB
0
TABLE
2
APPID
5
9
330
0
100
AcDbSymbolTable
70
1
0
APPID
5
12
330
9
100
AcDbSymbolTableRecord
100
AcDbRegAppTableRecord
2
ACAD
70
0
0
ENDTAB
0
TABLE
2
DIMSTYLE
5
A
330
0
100
AcDbSymbolTable
70
1
100
AcDbDimStyleTable
71
1
0
DIMSTYLE
105
48
330
A
100
AcDbSymbolTableRecord
100
AcDbDimStyleTableRecord
2
Standard
70
0
40
1
41
2.5
42
0.625
43
0.38
44
1.25
45
0
46
0
47
0
48
0
140
2.5
141
0.09
142
0
143
25.4
144
1
145
0
146
1
147
0.625
148
0
71
0
72
0
73
0
74
1
75
0
76
0
77
0
78
0
79
0
170
0
171
2
172
0
173
0
174
0
175
0
176
0
177
0
178
0
179
0
271
4
272
4
273
2
274
2
275
0
276
0
277
2
278
46
279
0
280
0
281
0
282
0
283
1
284
0
285
0
286
0
288
0
289
3
340
Standard
341

371
-2
372
-2
0
ENDTAB
0
TABLE
2
BLOCK_RECORD
5
1
330
0
100
AcDbSymbolTable
70
2
0
BLOCK_RECORD
5
1F
330
1
100
AcDbSymbolTableRecord
100
AcDbBlockTableRecord
2
*Model_Space
70
0
280
1
281
0
0
BLOCK_RECORD
5
1E
330
1
100
AcDbSymbolTableRecord
100
AcDbBlockTableRecord
2
*Paper_Space
70
0
280
1
281
0
0
BLOCK_RECORD
5
49
330
1
100
AcDbSymbolTableRecord
100
AcDbBlockTableRecord
2
*D4
70
0
280
1
281
0
0
BLOCK_RECORD
5
4C
330
1
100
AcDbSymbolTableRecord
100
AcDbBlockTableRecord
2
*D7
70
0
280
1
281
0
0
BLOCK_RECORD
5
4F
330
1
100
AcDbSymbolTableRecord
100
AcDbBlockTableRecord
2
*D1
70
0
280
1
281
0
0
BLOCK_RECORD
5
52
330
1
100
AcDbSymbolTableRecord
100
AcDbBlockTableRecord
2
*D6
70
0
280
1
281
0
0
BLOCK_RECORD
5
55
330
1
100
AcDbSymbolTableRecord
100
AcDbBlockTableRecord
2
*D5
70
0
280
1
281
0
0
BLOCK_RECORD
5
58
330
1
100
AcDbSymbolTableRecord
100
AcDbBlockTableRecord
2
*D3
70
0
280
1
281
0
0
BLOCK_RECORD
5
5B
330
1
100
AcDbSymbolTableRecord
100
AcDbBlockTableRecord
2
*D2
70
0
280
1
281
0
0
BLOCK_RECORD
5
5E
330
1
100
AcDbSymbolTableRecord
100
AcDbBlockTableRecord
2
*D8
70
0
280
1
281
0
0
ENDTAB
0
ENDSEC
0
SECTION
2
BLOCKS
0
BLOCK
5
20
330
1F
100
AcDbEntity
8
0
100
AcDbBlockBegin
2
*Model_Space
70
0
10
0
20
0
30
0
3
*Model_Space
1

0
ENDBLK
5
21
330
1F
100
AcDbEntity
8
0
100
AcDbBlockEnd
0
BLOCK
5
1C
330
1B
100
AcDbEntity
8
0
100
AcDbBlockBegin
2
*Paper_Space
70
0
10
0
20
0
30
0
3
*Paper_Space
1

0
ENDBLK
5
1D
330
1F
100
AcDbEntity
8
0
100
AcDbBlockEnd
0
BLOCK
5
4A
330
49
100
AcDbEntity
8
0
100
AcDbBlockBegin
2
*D4
70
1
10
0
20
0
3
*D4
1

0
LINE
5
61
100
AcDbEntity
8
Comments
6
CONTINUOUS
62
7
370
0
100
AcDbLine
10
164
20
42.6
11
164
21
30
0
SOLID
5
62
100
AcDbEntity
8
Comments
6
CONTINUOUS
62
7
370
0
100
AcDbTrace
10
164
20
42.6
30
0
11
164.416284658
21
40.1
31
0
12
163.583715342
22
40.1
32
0
13
163.583715342
23
40.1
33
0
0
SOLID
5
63
100
AcDbEntity
8
Comments
6
CONTINUOUS
62
7
370
0
100
AcDbTrace
10
164
20
30
30
0
11
163.583715342
21
32.5
31
0
12
164.416284658
22
32.5
32
0
13
164.416284658
23
32.5
33
0
0
MTEXT
5
64
100
AcDbEntity
8
Comments
6
CONTINUOUS
62
7
370
0
100
AcDbMText
10
162.125
20
36.3
30
0
40
2.5
41
5.27777777778
71
5
72
1
1
12.6
7
standard
210
0
220
0
230
1
50
90
73
2
44
1
0
LINE
5
65
100
AcDbEntity
8
Comments
6
CONTINUOUS
62
7
370
0
100
AcDbLine
10
160.525
20
42.6
11
165.25
21
42.6
0
LINE
5
66
100
AcDbEntity
8
Comments
6
CONTINUOUS
62
7
370
0
100
AcDbLine
10
170.125
20
30
11
165.25
21
30
0
ENDBLK
5
4B
330
49
100
AcDbEntity
8
0
100
AcDbBlockEnd
0
BLOCK
5
4D
330
4C
100
AcDbEntity
8
0
100
AcDbBlockBegin
2
*D7
70
1
10
0
20
0
3
*D7
1

0
LINE
5
67
100
AcDbEntity
8
Comments
6
CONTINUOUS
62
7
370
0
100
AcDbLine
10
214.5
20
76
11
240
21
76
0
SOLID
5
68
100
AcDbEntity
8
Comments
6
CONTINUOUS
62
7
370
0
100
AcDbTrace
10
214.5
20
76
30
0
11
217
21
76.4162846578
31
0
12
217
22
75.5837153422
32
0
13
217
23
75.5837153422
33
0
0
SOLID
5
69
100
AcDbEntity
8
Comments
6
CONTINUOUS
62
7
370
0
100
AcDbTrace
10
240
20
76
30
0
11
237.5
21
75.5837153422
31
0
12
237.5
22
76.4162846578
32
0
13
237.5
23
76.4162846578
33
0
0
MTEXT
5
6A
100
AcDbEntity
8
Comments
6
CONTINUOUS
62
7
370
0
100
AcDbMText
10
227.25
20
77.875
30
0
40
2.5
41
5.83333333333
71
5
72
1
1
25.5
7
standard
210
0
220
0
230
1
50
0
73
2
44
1
0
LINE
5
6B
100
AcDbEntity
8
Comments
6
CONTINUOUS
62
7
370
0
100
AcDbLine
10
214.5
20
68.625
11
214.5
21
77.25
0
LINE
5
6C
100
AcDbEntity
8
Comments
6
CONTINUOUS
62
7
370
0
100
AcDbLine
10
240
20
70.625
11
240
21
77.25
0
ENDBLK
5
4E
330
4C
100
AcDbEntity
8
0
100
AcDbBlockEnd
0
BLOCK
5
50
330
4F
100
AcDbEntity
8
0
100
AcDbBlockBegin
2
*D1
70
1
10
0
20
0
3
*D1
1

0
LINE
5
6D
100
AcDbEntity
8
Comments
6
CONTINUOUS
62
7
370
0
100
AcDbLine
10
3
20
-6
11
297
21
-6
0
SOLID
5
6E
100
AcDbEntity
8
Comments
6
CONTINUOUS
62
7
370
0
100
AcDbTrace
10
3
20
-6
30
0
11
5.5
21
-5.58371534223
31
0
12
5.5
22
-6.41628465777
32
0
13
5.5
23
-6.41628465777
33
0
0
SOLID
5
6F
100
AcDbEntity
8
Comments
6
CONTINUOUS
62
7
370
0
100
AcDbTrace
10
297
20
-6
30
0
11
294.5
21
-6.41628465777
31
0
12
294.5
22
-5.58371534223
32
0
13
294.5
23
-5.58371534223
33
0
0
MTEXT
5
70
100
AcDbEntity
8
Comments
6
CONTINUOUS
62
7
370
0
100
AcDbMText
10
150
20
-4.125
30
0
40
2.5
41
5.27777777778
71
5
72
1
1
294
7
standard
210
0
220
0
230
1
50
0
73
2
44
1
0
LINE
5
71
100
AcDbEntity
8
Comments
6
CONTINUOUS
62
7
370
0
100
AcDbLine
10
3
20
-0.625
11
3
21
-7.25
0
LINE
5
72
100
AcDbEntity
8
Comments
6
CONTINUOUS
62
7
370
0
100
AcDbLine
10
297
20
-0.625
11
297
21
-7.25
0
ENDBLK
5
51
330
4F
100
AcDbEntity
8
0
100
AcDbBlockEnd
0
BLOCK
5
53
330
52
100
AcDbEntity
8
0
100
AcDbBlockBegin
2
*D6
70
1
10
0
20
0
3
*D6
1

0
LINE
5
73
100
AcDbEntity
8
Comments
6
CONTINUOUS
62
7
370
0
100
AcDbLine
10
260
20
30
11
260
21
86
0
SOLID
5
74
100
AcDbEntity
8
Comments
6
CONTINUOUS
62
7
370
0
100
AcDbTrace
10
260
20
30
30
0
11
259.583715342
21
32.5
31
0
12
260.416284658
22
32.5
32
0
13
260.416284658
23
32.5
33
0
0
SOLID
5
75
100
AcDbEntity
8
Comments
6
CONTINUOUS
62
7
370
0
100
AcDbTrace
10
260
20
86
30
0
11
260.416284658
21
83.5
31
0
12
259.583715342
22
83.5
32
0
13
259.583715342
23
83.5
33
0
0
MTEXT
5
76
100
AcDbEntity
8
Comments
6
CONTINUOUS
62
7
370
0
100
AcDbMText
10
258.125
20
58
30
0
40
2.5
41
3.05555555556
71
5
72
1
1
56
7
standard
210
0
220
0
230
1
50
90
73
2
44
1
0
LINE
5
77
100
AcDbEntity
8
Comments
6
CONTINUOUS
62
7
370
0
100
AcDbLine
10
240.625
20
30
11
261.25
21
30
0
LINE
5
78
100
AcDbEntity
8
Comments
6
CONTINUOUS
62
7
370
0
100
AcDbLine
10
240.625
20
86
11
261.25
21
86
0
ENDBLK
5
54
330
52
100
AcDbEntity
8
0
100
AcDbBlockEnd
0
BLOCK
5
56
330
55
100
AcDbEntity
8
0
100
AcDbBlockBegin
2
*D5
70
1
10
0
20
0
3
*D5
1

0
LINE
5
79
100
AcDbEntity
8
Comments
6
CONTINUOUS
62
7
370
0
100
AcDbLine
10
164.9
20
47
11
150
21
47
0
SOLID
5
7A
100
AcDbEntity
8
Comments
6
CONTINUOUS
62
7
370
0
100
AcDbTrace
10
159.9
20
47
30
0
11
162.4
21
47.4162846578
31
0
12
162.4
22
46.5837153422
32
0
13
162.4
23
46.5837153422
33
0
0
SOLID
5
7B
100
AcDbEntity
8
Comments
6
CONTINUOUS
62
7
370
0
100
AcDbTrace
10
155
20
47
30
0
11
152.5
21
46.5837153422
31
0
12
152.5
22
47.4162846578
32
0
13
152.5
23
47.4162846578
33
0
0
MTEXT
5
7C
100
AcDbEntity
8
Comments
6
CONTINUOUS
62
7
370
0
100
AcDbMText
10
157.45
20
48.875
30
0
40
2.5
41
4.16666666667
71
5
72
1
1
4.9
7
standard
210
0
220
0
230
1
50
360
73
2
44
1
0
LINE
5
7D
100
AcDbEntity
8
Comments
6
CONTINUOUS
62
7
370
0
100
AcDbLine
10
159.9
20
43.225
11
159.9
21
48.25
0
LINE
5
7E
100
AcDbEntity
8
Comments
6
CONTINUOUS
62
7
370
0
100
AcDbLine
10
155
20
70.625
11
155
21
48.25
0
ENDBLK
5
57
330
55
100
AcDbEntity
8
0
100
AcDbBlockEnd
0
BLOCK
5
59
330
58
100
AcDbEntity
8
0
100
AcDbBlockBegin
2
*D3
70
1
10
0
20
0
3
*D3
1

0
LINE
5
7F
100
AcDbEntity
8
Comments
6
CONTINUOUS
62
7
370
0
100
AcDbLine
10
155
20
14
11
240
21
14
0
SOLID
5
80
100
AcDbEntity
8
Comments
6
CONTINUOUS
62
7
370
0
100
AcDbTrace
10
155
20
14
30
0
11
157.5
21
14.4162846578
31
0
12
157.5
22
13.5837153422
32
0
13
157.5
23
13.5837153422
33
0
0
SOLID
5
81
100
AcDbEntity
8
Comments
6
CONTINUOUS
62
7
370
0
100
AcDbTrace
10
240
20
14
30
0
11
237.5
21
13.5837153422
31
0
12
237.5
22
14.4162846578
32
0
13
237.5
23
14.4162846578
33
0
0
MTEXT
5
82
100
AcDbEntity
8
Comments
6
CONTINUOUS
62
7
370
0
100
AcDbMText
10
197.5
20
15.875
30
0
40
2.5
41
3.05555555556
71
5
72
1
1
85
7
standard
210
0
220
0
230
1
50
0
73
2
44
1
0
LINE
5
83
100
AcDbEntity
8
Comments
6
CONTINUOUS
62
7
370
0
100
AcDbLine
10
155
20
29.375
11
155
21
12.75
0
LINE
5
84
100
AcDbEntity
8
Comments
6
CONTINUOUS
62
7
370
0
100
AcDbLine
10
240
20
29.375
11
240
21
12.75
0
ENDBLK
5
5A
330
58
100
AcDbEntity
8
0
100
AcDbBlockEnd
0
BLOCK
5
5C
330
5B
100
AcDbEntity
8
0
100
AcDbBlockBegin
2
*D2
70
1
10
0
20
0
3
*D2
1

0
LINE
5
85
100
AcDbEntity
8
Comments
6
CONTINUOUS
62
7
370
0
100
AcDbLine
10
313
20
0
11
313
21
177
0
SOLID
5
86
100
AcDbEntity
8
Comments
6
CONTINUOUS
62
7
370
0
100
AcDbTrace
10
313
20
0
30
0
11
312.583715342
21
2.5
31
0
12
313.416284658
22
2.5
32
0
13
313.416284658
23
2.5
33
0
0
SOLID
5
87
100
AcDbEntity
8
Comments
6
CONTINUOUS
62
7
370
0
100
AcDbTrace
10
313
20
177
30
0
11
313.416284658
21
174.5
31
0
12
312.583715342
22
174.5
32
0
13
312.583715342
23
174.5
33
0
0
MTEXT
5
88
100
AcDbEntity
8
Comments
6
CONTINUOUS
62
7
370
0
100
AcDbMText
10
311.125
20
88.5
30
0
40
2.5
41
4.44444444444
71
5
72
1
1
177
7
standard
210
0
220
0
230
1
50
90
73
2
44
1
0
LINE
5
89
100
AcDbEntity
8
Comments
6
CONTINUOUS
62
7
370
0
100
AcDbLine
10
297.625
20
0
11
314.25
21
0
0
LINE
5
8A
100
AcDbEntity
8
Comments
6
CONTINUOUS
62
7
370
0
100
AcDbLine
10
297.625
20
177
11
314.25
21
177
0
ENDBLK
5
5D
330
5B
100
AcDbEntity
8
0
100
AcDbBlockEnd
0
BLOCK
5
5F
330
5E
100
AcDbEntity
8
0
100
AcDbBlockBegin
2
*D8
70
1
10
0
20
0
3
*D8
1

0
LINE
5
8B
100
AcDbEntity
8
Comments
6
CONTINUOUS
62
7
370
0
100
AcDbLine
10
205
20
68
11
205
21
86
0
SOLID
5
8C
100
AcDbEntity
8
Comments
6
CONTINUOUS
62
7
370
0
100
AcDbTrace
10
205
20
68
30
0
11
204.583715342
21
70.5
31
0
12
205.416284658
22
70.5
32
0
13
205.416284658
23
70.5
33
0
0
SOLID
5
8D
100
AcDbEntity
8
Comments
6
CONTINUOUS
62
7
370
0
100
AcDbTrace
10
205
20
86
30
0
11
205.416284658
21
83.5
31
0
12
204.583715342
22
83.5
32
0
13
204.583715342
23
83.5
33
0
0
MTEXT
5
8E
100
AcDbEntity
8
Comments
6
CONTINUOUS
62
7
370
0
100
AcDbMText
10
203.125
20
77
30
0
40
2.5
41
2.5
71
5
72
1
1
18
7
standard
210
0
220
0
230
1
50
90
73
2
44
1
0
LINE
5
8F
100
AcDbEntity
8
Comments
6
CONTINUOUS
62
7
370
0
100
AcDbLine
10
213.875
20
68
11
203.75
21
68
0
LINE
5
90
100
AcDbEntity
8
Comments
6
CONTINUOUS
62
7
370
0
100
AcDbLine
10
214.375
20
86
11
203.75
21
86
0
ENDBLK
5
60
330
5E
100
AcDbEntity
8
0
100
AcDbBlockEnd
0
ENDSEC
0
SECTION
2
ENTITIES
0
LINE
5
91
100
AcDbEntity
8
Cutting
6
ByLayer
62
256
370
-1
100
AcDbLine
10
3
20
0
11
297
21
0
0
DIMENSION
5
92
100
AcDbEntity
8
Comments
6
ByLayer
62
256
370
-1
100
AcDbDimension
2
*D1
10
297
20
-6
30
0
11
150
21
-4.125
31
0
70
32
71
5
72
0
3
Standard
53
0
210
0
220
0
230
1
100
AcDbAlignedDimension
13
3
23
0
33
0
14
297
24
0
34
0
100
AcDbRotatedDimension
0
LINE
5
93
100
AcDbEntity
8
Cutting
6
ByLayer
62
256
370
-1
100
AcDbLine
10
297
20
0
11
297
21
177
0
DIMENSION
5
94
100
AcDbEntity
8
Comments
6
ByLayer
62
256
370
-1
100
AcDbDimension
2
*D2
10
313
20
200
30
0
11
311.125
21
88.5
31
0
70
32
71
5
72
0
3
Standard
53
0
210
0
220
0
230
1
100
AcDbAlignedDimension
13
297
23
0
33
0
14
297
24
177
34
0
50
90
100
AcDbRotatedDimension
0
LINE
5
95
100
AcDbEntity
8
Cutting
6
ByLayer
62
256
370
-1
100
AcDbLine
10
3
20
177
11
3
21
0
0
LINE
5
96
100
AcDbEntity
8
Cutting
6
ByLayer
62
256
370
-1
100
AcDbLine
10
297
20
177
11
3
21
177
0
LINE
5
97
100
AcDbEntity
8
Line_Engraving
6
ByLayer
62
256
370
-1
100
AcDbLine
10
3
20
3
11
297
21
3
0
LINE
5
98
100
AcDbEntity
8
Line_Engraving
6
ByLayer
62
256
370
-1
100
AcDbLine
10
3
20
7
11
297
21
7
0
LINE
5
99
100
AcDbEntity
8
Line_Engraving
6
ByLayer
62
256
370
-1
100
AcDbLine
10
297
20
10
11
3
21
10
0
LINE
5
9A
100
AcDbEntity
8
Line_Engraving
6
ByLayer
62
256
370
-1
100
AcDbLine
10
155
20
30
11
240
21
30
0
DIMENSION
5
9B
100
AcDbEntity
8
Comments
6
ByLayer
62
256
370
-1
100
AcDbDimension
2
*D3
10
240
20
14
30
0
11
197.5
21
15.875
31
0
70
32
71
5
3
Standard
53
0
210
0
220
0
230
1
100
AcDbAlignedDimension
13
155
23
30
33
0
14
240
24
30
34
0
100
AcDbRotatedDimension
0
CIRCLE
5
9C
100
AcDbEntity
8
Cutting
6
ByLayer
62
256
370
-1
100
AcDbCircle
10
159.9
20
42.6
40
1.5
0
DIMENSION
5
9D
100
AcDbEntity
8
Comments
6
ByLayer
62
256
370
-1
100
AcDbDimension
2
*D4
10
164
20
34
30
0
11
162.125
21
36.3
31
0
70
32
71
5
3
Standard
53
0
210
0
220
0
230
1
100
AcDbAlignedDimension
13
159.9
23
42.6
33
0
14
169.5
24
30
34
0
50
90
100
AcDbRotatedDimension
0
DIMENSION
5
9E
100
AcDbEntity
8
Comments
6
ByLayer
62
256
370
-1
100
AcDbDimension
2
*D5
10
156
20
47
30
0
11
157.45
21
48.875
31
0
70
32
71
5
3
Standard
53
0
210
0
220
0
230
1
100
AcDbAlignedDimension
13
159.9
23
42.6
33
0
14
155
24
70
34
0
100
AcDbRotatedDimension
0
LINE
5
9F
100
AcDbEntity
8
Line_Engraving
6
ByLayer
62
256
370
-1
100
AcDbLine
10
155
20
86
11
155
21
30
0
LINE
5
A0
100
AcDbEntity
8
Line_Engraving
6
ByLayer
62
256
370
-1
100
AcDbLine
10
240
20
30
11
240
21
86
0
DIMENSION
5
A1
100
AcDbEntity
8
Comments
6
ByLayer
62
256
370
-1
100
AcDbDimension
2
*D6
10
260
20
110
30
0
11
258.125
21
58
31
0
70
32
71
5
3
Standard
53
0
210
0
220
0
230
1
100
AcDbAlignedDimension
13
240
23
30
33
0
14
240
24
86
34
0
50
90
100
AcDbRotatedDimension
0
LINE
5
A2
100
AcDbEntity
8
Line_Engraving
6
ByLayer
62
256
370
-1
100
AcDbLine
10
240
20
86
11
155
21
86
0
CIRCLE
5
A3
100
AcDbEntity
8
Cutting
6
ByLayer
62
256
370
-1
100
AcDbCircle
10
214.5
20
68
40
1.5
0
DIMENSION
5
A4
100
AcDbEntity
8
Comments
6
ByLayer
62
256
370
-1
100
AcDbDimension
2
*D7
10
240
20
76
30
0
11
227.25
21
77.875
31
0
70
32
71
5
3
Standard
53
0
210
0
220
0
230
1
100
AcDbAlignedDimension
13
214.5
23
68
33
0
14
240
24
70
34
0
100
AcDbRotatedDimension
0
DIMENSION
5
A5
100
AcDbEntity
8
Comments
6
ByLayer
62
256
370
-1
100
AcDbDimension
2
*D8
10
205
20
88
30
0
11
203.125
21
77
31
0
70
32
71
5
3
Standard
53
0
210
0
220
0
230
1
100
AcDbAlignedDimension
13
214.5
23
68
33
0
14
215
24
86
34
0
50
90
100
AcDbRotatedDimension
0
ENDSEC
0
SECTION
2
OBJECTS
0
DICTIONARY
5
C
330
0
100
AcDbDictionary
281
1
3
ACAD_GROUP
350
D
0
DICTIONARY
5
D
330
C
100
AcDbDictionary
281
1
0
ENDSEC
0
EOF
