999
dxfrw 0.5.10
0
SECTION
2
HEADER
9
$ACADVER
1
AC1021
9
$HANDSEED
5
20000
9
$DWGCODEPAGE
3
ANSI_1252
9
$INSBASE
10
0
20
0
30
0
9
$EXTMIN
10
-2.06659147356e-15
20
-11.25
30
0
9
$EXTMAX
10
301.25
20
180
30
0
9
$LIMMIN
10
0
20
0
9
$LIMMAX
10
420
20
297
9
$ORTHOMODE
70
0
9
$LTSCALE
40
1
9
$TEXTSTYLE
7
STANDARD
9
$CLAYER
8
Comments
9
$DIMASZ
40
2.5
9
$DIMLFAC
40
1
9
$DIMSCALE
40
1
9
$DIMEXO
40
0.625
9
$DIMEXE
40
1.25
9
$DIMTXT
40
2.5
9
$DIMTSZ
40
0
9
$DIMAUNIT
70
0
9
$DIMADEC
70
2
9
$DIMLUNIT
70
2
9
$DIMSTYLE
2
STANDARD
9
$DIMGAP
40
0.625
9
$DIMTIH
70
0
9
$LUNITS
70
2
9
$LUPREC
70
4
9
$AUNITS
70
0
9
$AUPREC
70
2
9
$SPLINESEGS
70
8
9
$GRIDMODE
70
1
9
$SNAPSTYLE
70
0
9
$GRIDUNIT
10
0.1
20
0.1
9
$PINSBASE
10
0
20
0
30
0
9
$PLIMMIN
10
0
20
0
9
$PLIMMAX
10
210
20
297
9
$INSUNITS
70
4
9
$PSVPSCALE
40
1
0
ENDSEC
0
SECTION
2
CLASSES
0
ENDSEC
0
SECTION
2
TABLES
0
TABLE
2
VPORT
5
8
330
0
100
AcDbSymbolTable
70
1
0
VPORT
5
31
330
2
100
AcDbSymbolTableRecord
100
AcDbViewportTableRecord
2
*ACTIVE
70
0
10
0
20
0
11
1
21
1
12
131.375
22
53
13
0
23
0
14
10
24
10
15
0.1
25
0.1
16
0
26
0
36
1
17
0
27
0
37
0
40
130.75
41
1.75908221797
42
50
43
0
44
0
50
0
51
0
71
0
72
100
73
1
74
3
75
0
76
1
77
0
78
0
281
0
65
1
110
0
120
0
130
0
111
1
121
0
131
0
112
0
122
1
132
0
79
0
146
0
348
10020
60
3
61
5
292
1
282
1
141
0
142
0
63
250
421
3358443
0
ENDTAB
0
TABLE
2
LTYPE
5
5
330
0
100
AcDbSymbolTable
70
4
0
LTYPE
5
14
330
5
100
AcDbSymbolTableRecord
100
AcDbLinetypeTableRecord
2
ByBlock
70
0
3

72
65
73
0
40
0
0
LTYPE
5
15
330
5
100
AcDbSymbolTableRecord
100
AcDbLinetypeTableRecord
2
ByLayer
70
0
3

72
65
73
0
40
0
0
LTYPE
5
16
330
5
100
AcDbSymbolTableRecord
100
AcDbLinetypeTableRecord
2
Continuous
70
0
3
Solid line
72
65
73
0
40
0
0
LTYPE
5
32
330
5
100
AcDbSymbolTableRecord
100
AcDbLinetypeTableRecord
2
DOT
70
0
3
Dot . . . . . . . . . . . . . . . . . . . . . .
72
65
73
2
40
6.35
49
0
74
0
49
-6.35
74
0
0
LTYPE
5
33
330
5
100
AcDbSymbolTableRecord
100
AcDbLinetypeTableRecord
2
DOT2
70
0
3
Dot (.5x) .....................................
72
65
73
2
40
3.175
49
0
74
0
49
-3.175
74
0
0
LTYPE
5
34
330
5
100
AcDbSymbolTableRecord
100
AcDbLinetypeTableRecord
2
DOTX2
70
0
3
Dot (2x) .  .  .  .  .  .  .  .  .  .  .  .  .
72
65
73
2
40
12.7
49
0
74
0
49
-12.7
74
0
0
LTYPE
5
35
330
5
100
AcDbSymbolTableRecord
100
AcDbLinetypeTableRecord
2
DASHED
70
0
3
Dot . . . . . . . . . . . . . . . . . . . . . .
72
65
73
2
40
19.05
49
12.7
74
0
49
-6.35
74
0
0
LTYPE
5
36
330
5
100
AcDbSymbolTableRecord
100
AcDbLinetypeTableRecord
2
DASHED2
70
0
3
Dashed (.5x) _ _ _ _ _ _ _ _ _ _ _ _ _ _ _ _ _
72
65
73
2
40
9.525
49
6.35
74
0
49
-3.175
74
0
0
LTYPE
5
37
330
5
100
AcDbSymbolTableRecord
100
AcDbLinetypeTableRecord
2
DASHEDX2
70
0
3
Dashed (2x) ____  ____  ____  ____  ____  ___
72
65
73
2
40
38.1
49
25.4
74
0
49
-12.7
74
0
0
LTYPE
5
38
330
5
100
AcDbSymbolTableRecord
100
AcDbLinetypeTableRecord
2
DASHDOT
70
0
3
Dash dot __ . __ . __ . __ . __ . __ . __ . __
72
65
73
4
40
25.4
49
12.7
74
0
49
-6.35
74
0
49
0
74
0
49
-6.35
74
0
0
LTYPE
5
39
330
5
100
AcDbSymbolTableRecord
100
AcDbLinetypeTableRecord
2
DASHDOT2
70
0
3
Dash dot (.5x) _._._._._._._._._._._._._._._.
72
65
73
4
40
12.7
49
6.35
74
0
49
-3.175
74
0
49
0
74
0
49
-3.175
74
0
0
LTYPE
5
3A
330
5
100
AcDbSymbolTableRecord
100
AcDbLinetypeTableRecord
2
DASHDOTX2
70
0
3
Dash dot (2x) ____  .  ____  .  ____  .  ___
72
65
73
4
40
50.8
49
25.4
74
0
49
-12.7
74
0
49
0
74
0
49
-12.7
74
0
0
LTYPE
5
3B
330
5
100
AcDbSymbolTableRecord
100
AcDbLinetypeTableRecord
2
DIVIDE
70
0
3
Divide ____ . . ____ . . ____ . . ____ . . ____
72
65
73
6
40
31.75
49
12.7
74
0
49
-6.35
74
0
49
0
74
0
49
-6.35
74
0
49
0
74
0
49
-6.35
74
0
0
LTYPE
5
3C
330
5
100
AcDbSymbolTableRecord
100
AcDbLinetypeTableRecord
2
DIVIDE2
70
0
3
Divide (.5x) __..__..__..__..__..__..__..__.._
72
65
73
6
40
15.875
49
6.35
74
0
49
-3.175
74
0
49
0
74
0
49
-3.175
74
0
49
0
74
0
49
-3.175
74
0
0
LTYPE
5
3D
330
5
100
AcDbSymbolTableRecord
100
AcDbLinetypeTableRecord
2
DIVIDEX2
70
0
3
Divide (2x) ________  .  .  ________  .  .  _
72
65
73
6
40
63.5
49
25.4
74
0
49
-12.7
74
0
49
0
74
0
49
-12.7
74
0
49
0
74
0
49
-12.7
74
0
0
LTYPE
5
3E
330
5
100
AcDbSymbolTableRecord
100
AcDbLinetypeTableRecord
2
BORDER
70
0
3
Border __ __ . __ __ . __ __ . __ __ . __ __ .
72
65
73
6
40
44.45
49
12.7
74
0
49
-6.35
74
0
49
12.7
74
0
49
-6.35
74
0
49
0
74
0
49
-6.35
74
0
0
LTYPE
5
3F
330
5
100
AcDbSymbolTableRecord
100
AcDbLinetypeTableRecord
2
BORDER2
70
0
3
Border (.5x) __.__.__.__.__.__.__.__.__.__.__.
72
65
73
6
40
22.225
49
6.35
74
0
49
-3.175
74
0
49
6.35
74
0
49
-3.175
74
0
49
0
74
0
49
-3.175
74
0
0
LTYPE
5
40
330
5
100
AcDbSymbolTableRecord
100
AcDbLinetypeTableRecord
2
BORDERX2
70
0
3
Border (2x) ____  ____  .  ____  ____  .  ___
72
65
73
6
40
88.9
49
25.4
74
0
49
-12.7
74
0
49
25.4
74
0
49
-12.7
74
0
49
0
74
0
49
-12.7
74
0
0
LTYPE
5
41
330
5
100
AcDbSymbolTableRecord
100
AcDbLinetypeTableRecord
2
CENTER
70
0
3
Center ____ _ ____ _ ____ _ ____ _ ____ _ ____
72
65
73
4
40
50.8
49
31.75
74
0
49
-6.35
74
0
49
6.35
74
0
49
-6.35
74
0
0
LTYPE
5
42
330
5
100
AcDbSymbolTableRecord
100
AcDbLinetypeTableRecord
2
CENTER2
70
0
3
Center (.5x) ___ _ ___ _ ___ _ ___ _ ___ _ ___
72
65
73
4
40
28.575
49
19.05
74
0
49
-3.175
74
0
49
3.175
74
0
49
-3.175
74
0
0
LTYPE
5
43
330
5
100
AcDbSymbolTableRecord
100
AcDbLinetypeTableRecord
2
CENTERX2
70
0
3
Center (2x) ________  __  ________  __  _____
72
65
73
4
40
101.6
49
63.5
74
0
49
-12.7
74
0
49
12.7
74
0
49
-12.7
74
0
0
ENDTAB
0
TABLE
2
LAYER
5
2
330
0
100
AcDbSymbolTable
70
1
0
LAYER
5
10
330
2
100
AcDbSymbolTableRecord
100
AcDbLayerTableRecord
2
0
70
0
62
7
6
CONTINUOUS
370
0
390
F
0
LAYER
5
44
330
2
100
AcDbSymbolTableRecord
100
AcDbLayerTableRecord
2
Cutting
70
0
62
5
6
CONTINUOUS
370
5
390
F
0
LAYER
5
45
330
2
100
AcDbSymbolTableRecord
100
AcDbLayerTableRecord
2
Comments
70
0
62
2
6
CONTINUOUS
370
5
390
F
0
LAYER
5
46
330
2
100
AcDbSymbolTableRecord
100
AcDbLayerTableRecord
2
Line_Engraving
70
0
62
3
6
CONTINUOUS
370
5
390
F
0
ENDTAB
0
TABLE
2
STYLE
5
3
330
0
100
AcDbSymbolTable
70
3
0
STYLE
5
47
330
2
100
AcDbSymbolTableRecord
100
AcDbTextStyleTableRecord
2
Standard
70
0
40
0
41
1
50
0
71
0
42
1
3
txt
4

0
ENDTAB
0
TABLE
2
VIEW
5
6
330
0
100
AcDbSymbolTable
70
0
0
ENDTAB
0
TABLE
2
UCS
5
7
330
0
100
AcDbSymbolTable
70
0
0
ENDTAB
0
TABLE
2
APPID
5
9
330
0
100
AcDbSymbolTable
70
1
0
APPID
5
12
330
9
100
AcDbSymbolTableRecord
100
AcDbRegAppTableRecord
2
ACAD
70
0
0
ENDTAB
0
TABLE
2
DIMSTYLE
5
A
330
0
100
AcDbSymbolTable
70
1
100
AcDbDimStyleTable
71
1
0
DIMSTYLE
105
48
330
A
100
AcDbSymbolTableRecord
100
AcDbDimStyleTableRecord
2
Standard
70
0
40
1
41
2.5
42
0.625
43
0.38
44
1.25
45
0
46
0
47
0
48
0
140
2.5
141
0.09
142
0
143
25.4
144
1
145
0
146
1
147
0.625
148
0
71
0
72
0
73
0
74
1
75
0
76
0
77
0
78
0
79
0
170
0
171
2
172
0
173
0
174
0
175
0
176
0
177
0
178
0
179
0
271
4
272
4
273
2
274
2
275
0
276
0
277
2
278
46
279
0
280
0
281
0
282
0
283
1
284
0
285
0
286
0
288
0
289
3
340
Standard
341

371
-2
372
-2
0
ENDTAB
0
TABLE
2
BLOCK_RECORD
5
1
330
0
100
AcDbSymbolTable
70
2
0
BLOCK_RECORD
5
1F
330
1
100
AcDbSymbolTableRecord
100
AcDbBlockTableRecord
2
*Model_Space
70
0
280
1
281
0
0
BLOCK_RECORD
5
1E
330
1
100
AcDbSymbolTableRecord
100
AcDbBlockTableRecord
2
*Paper_Space
70
0
280
1
281
0
0
BLOCK_RECORD
5
49
330
1
100
AcDbSymbolTableRecord
100
AcDbBlockTableRecord
2
*D5
70
0
280
1
281
0
0
BLOCK_RECORD
5
4C
330
1
100
AcDbSymbolTableRecord
100
AcDbBlockTableRecord
2
*D9
70
0
280
1
281
0
0
BLOCK_RECORD
5
4F
330
1
100
AcDbSymbolTableRecord
100
AcDbBlockTableRecord
2
*D8
70
0
280
1
281
0
0
BLOCK_RECORD
5
52
330
1
100
AcDbSymbolTableRecord
100
AcDbBlockTableRecord
2
*D12
70
0
280
1
281
0
0
BLOCK_RECORD
5
55
330
1
100
AcDbSymbolTableRecord
100
AcDbBlockTableRecord
2
*D3
70
0
280
1
281
0
0
BLOCK_RECORD
5
58
330
1
100
AcDbSymbolTableRecord
100
AcDbBlockTableRecord
2
*D6
70
0
280
1
281
0
0
BLOCK_RECORD
5
5B
330
1
100
AcDbSymbolTableRecord
100
AcDbBlockTableRecord
2
*D1
70
0
280
1
281
0
0
BLOCK_RECORD
5
5E
330
1
100
AcDbSymbolTableRecord
100
AcDbBlockTableRecord
2
*D7
70
0
280
1
281
0
0
BLOCK_RECORD
5
61
330
1
100
AcDbSymbolTableRecord
100
AcDbBlockTableRecord
2
*D11
70
0
280
1
281
0
0
BLOCK_RECORD
5
64
330
1
100
AcDbSymbolTableRecord
100
AcDbBlockTableRecord
2
*D4
70
0
280
1
281
0
0
BLOCK_RECORD
5
67
330
1
100
AcDbSymbolTableRecord
100
AcDbBlockTableRecord
2
*D2
70
0
280
1
281
0
0
BLOCK_RECORD
5
6A
330
1
100
AcDbSymbolTableRecord
100
AcDbBlockTableRecord
2
*D10
70
0
280
1
281
0
0
ENDTAB
0
ENDSEC
0
SECTION
2
BLOCKS
0
BLOCK
5
20
330
1F
100
AcDbEntity
8
0
100
AcDbBlockBegin
2
*Model_Space
70
0
10
0
20
0
30
0
3
*Model_Space
1

0
ENDBLK
5
21
330
1F
100
AcDbEntity
8
0
100
AcDbBlockEnd
0
BLOCK
5
1C
330
1B
100
AcDbEntity
8
0
100
AcDbBlockBegin
2
*Paper_Space
70
0
10
0
20
0
30
0
3
*Paper_Space
1

0
ENDBLK
5
1D
330
1F
100
AcDbEntity
8
0
100
AcDbBlockEnd
0
BLOCK
5
4A
330
49
100
AcDbEntity
8
0
100
AcDbBlockBegin
2
*D5
70
1
10
0
20
0
3
*D5
1

0
LINE
5
6D
100
AcDbEntity
8
Comments
6
CONTINUOUS
62
7
370
0
100
AcDbLine
10
225.7
20
35
11
240
21
35
0
SOLID
5
6E
100
AcDbEntity
8
Comments
6
CONTINUOUS
62
7
370
0
100
AcDbTrace
10
225.7
20
35
30
0
11
228.2
21
35.4162846578
31
0
12
228.2
22
34.5837153422
32
0
13
228.2
23
34.5837153422
33
0
0
SOLID
5
6F
100
AcDbEntity
8
Comments
6
CONTINUOUS
62
7
370
0
100
AcDbTrace
10
240
20
35
30
0
11
237.5
21
34.5837153422
31
0
12
237.5
22
35.4162846578
32
0
13
237.5
23
35.4162846578
33
0
0
MTEXT
5
70
100
AcDbEntity
8
Comments
6
CONTINUOUS
62
7
370
0
100
AcDbMText
10
232.85
20
36.875
30
0
40
2.5
41
5.55555555556
71
5
72
1
1
14.3
7
standard
210
0
220
0
230
1
50
0
73
2
44
1
0
LINE
5
71
100
AcDbEntity
8
Comments
6
CONTINUOUS
62
7
370
0
100
AcDbLine
10
225.7
20
38.375
11
225.7
21
33.75
0
LINE
5
72
100
AcDbEntity
8
Comments
6
CONTINUOUS
62
7
370
0
100
AcDbLine
10
240
20
38.375
11
240
21
33.75
0
ENDBLK
5
4B
330
49
100
AcDbEntity
8
0
100
AcDbBlockEnd
0
BLOCK
5
4D
330
4C
100
AcDbEntity
8
0
100
AcDbBlockBegin
2
*D9
70
1
10
0
20
0
3
*D9
1

0
LINE
5
73
100
AcDbEntity
8
Comments
6
CONTINUOUS
62
7
370
0
100
AcDbLine
10
120.7
20
31
11
240
21
31
0
SOLID
5
74
100
AcDbEntity
8
Comments
6
CONTINUOUS
62
7
370
0
100
AcDbTrace
10
120.7
20
31
30
0
11
123.2
21
31.4162846578
31
0
12
123.2
22
30.5837153422
32
0
13
123.2
23
30.5837153422
33
0
0
SOLID
5
75
100
AcDbEntity
8
Comments
6
CONTINUOUS
62
7
370
0
100
AcDbTrace
10
240
20
31
30
0
11
237.5
21
30.5837153422
31
0
12
237.5
22
31.4162846578
32
0
13
237.5
23
31.4162846578
33
0
0
MTEXT
5
76
100
AcDbEntity
8
Comments
6
CONTINUOUS
62
7
370
0
100
AcDbMText
10
180.35
20
32.875
30
0
40
2.5
41
6.66666666667
71
5
72
1
1
119.3
7
standard
210
0
220
0
230
1
50
0
73
2
44
1
0
LINE
5
77
100
AcDbEntity
8
Comments
6
CONTINUOUS
62
7
370
0
100
AcDbLine
10
120.7
20
38.375
11
120.7
21
29.75
0
LINE
5
78
100
AcDbEntity
8
Comments
6
CONTINUOUS
62
7
370
0
100
AcDbLine
10
240
20
38.375
11
240
21
29.75
0
ENDBLK
5
4E
330
4C
100
AcDbEntity
8
0
100
AcDbBlockEnd
0
BLOCK
5
50
330
4F
100
AcDbEntity
8
0
100
AcDbBlockBegin
2
*D8
70
1
10
0
20
0
3
*D8
1

0
LINE
5
79
100
AcDbEntity
8
Comments
6
CONTINUOUS
62
7
370
0
100
AcDbLine
10
106
20
39
11
106
21
88
0
SOLID
5
7A
100
AcDbEntity
8
Comments
6
CONTINUOUS
62
7
370
0
100
AcDbTrace
10
106
20
39
30
0
11
105.583715342
21
41.5
31
0
12
106.416284658
22
41.5
32
0
13
106.416284658
23
41.5
33
0
0
SOLID
5
7B
100
AcDbEntity
8
Comments
6
CONTINUOUS
62
7
370
0
100
AcDbTrace
10
106
20
88
30
0
11
106.416284658
21
85.5
31
0
12
105.583715342
22
85.5
32
0
13
105.583715342
23
85.5
33
0
0
MTEXT
5
7C
100
AcDbEntity
8
Comments
6
CONTINUOUS
62
7
370
0
100
AcDbMText
10
104.125
20
63.5
30
0
40
2.5
41
3.33333333333
71
5
72
1
1
49
7
standard
210
0
220
0
230
1
50
90
73
2
44
1
0
LINE
5
7D
100
AcDbEntity
8
Comments
6
CONTINUOUS
62
7
370
0
100
AcDbLine
10
120.075
20
39
11
104.75
21
39
0
LINE
5
7E
100
AcDbEntity
8
Comments
6
CONTINUOUS
62
7
370
0
100
AcDbLine
10
113.575
20
88
11
104.75
21
88
0
ENDBLK
5
51
330
4F
100
AcDbEntity
8
0
100
AcDbBlockEnd
0
BLOCK
5
53
330
52
100
AcDbEntity
8
0
100
AcDbBlockBegin
2
*D12
70
1
10
0
20
0
3
*D12
1

0
LINE
5
7F
100
AcDbEntity
8
Comments
6
CONTINUOUS
62
7
370
0
100
AcDbLine
10
86
20
88
11
86
21
30
0
SOLID
5
80
100
AcDbEntity
8
Comments
6
CONTINUOUS
62
7
370
0
100
AcDbTrace
10
86
20
88
30
0
11
86.4162846578
21
85.5
31
0
12
85.5837153422
22
85.5
32
0
13
85.5837153422
23
85.5
33
0
0
SOLID
5
81
100
AcDbEntity
8
Comments
6
CONTINUOUS
62
7
370
0
100
AcDbTrace
10
86
20
30
30
0
11
85.5837153422
21
32.5
31
0
12
86.4162846578
22
32.5
32
0
13
86.4162846578
23
32.5
33
0
0
MTEXT
5
82
100
AcDbEntity
8
Comments
6
CONTINUOUS
62
7
370
0
100
AcDbMText
10
84.125
20
59
30
0
40
2.5
41
3.05555555556
71
5
72
1
1
58
7
standard
210
0
220
0
230
1
50
90
73
2
44
1
0
LINE
5
83
100
AcDbEntity
8
Comments
6
CONTINUOUS
62
7
370
0
100
AcDbLine
10
100.375
20
88
11
84.75
21
88
0
LINE
5
84
100
AcDbEntity
8
Comments
6
CONTINUOUS
62
7
370
0
100
AcDbLine
10
100.375
20
30
11
84.75
21
30
0
ENDBLK
5
54
330
52
100
AcDbEntity
8
0
100
AcDbBlockEnd
0
BLOCK
5
56
330
55
100
AcDbEntity
8
0
100
AcDbBlockBegin
2
*D3
70
1
10
0
20
0
3
*D3
1

0
LINE
5
85
100
AcDbEntity
8
Comments
6
CONTINUOUS
62
7
370
0
100
AcDbLine
10
115
20
66
11
240
21
66
0
SOLID
5
86
100
AcDbEntity
8
Comments
6
CONTINUOUS
62
7
370
0
100
AcDbTrace
10
115
20
66
30
0
11
117.5
21
66.4162846578
31
0
12
117.5
22
65.5837153422
32
0
13
117.5
23
65.5837153422
33
0
0
SOLID
5
87
100
AcDbEntity
8
Comments
6
CONTINUOUS
62
7
370
0
100
AcDbTrace
10
240
20
66
30
0
11
237.5
21
65.5837153422
31
0
12
237.5
22
66.4162846578
32
0
13
237.5
23
66.4162846578
33
0
0
MTEXT
5
88
100
AcDbEntity
8
Comments
6
CONTINUOUS
62
7
370
0
100
AcDbMText
10
177.5
20
67.875
30
0
40
2.5
41
4.44444444444
71
5
72
1
1
125
7
standard
210
0
220
0
230
1
50
0
73
2
44
1
0
LINE
5
89
100
AcDbEntity
8
Comments
6
CONTINUOUS
62
7
370
0
100
AcDbLine
10
115
20
75.375
11
115
21
64.75
0
LINE
5
8A
100
AcDbEntity
8
Comments
6
CONTINUOUS
62
7
370
0
100
AcDbLine
10
240
20
75.375
11
240
21
64.75
0
ENDBLK
5
57
330
55
100
AcDbEntity
8
0
100
AcDbBlockEnd
0
BLOCK
5
59
330
58
100
AcDbEntity
8
0
100
AcDbBlockBegin
2
*D6
70
1
10
0
20
0
3
*D6
1

0
LINE
5
8B
100
AcDbEntity
8
Comments
6
CONTINUOUS
62
7
370
0
100
AcDbLine
10
222
20
76
11
222
21
88
0
SOLID
5
8C
100
AcDbEntity
8
Comments
6
CONTINUOUS
62
7
370
0
100
AcDbTrace
10
222
20
76
30
0
11
221.583715342
21
78.5
31
0
12
222.416284658
22
78.5
32
0
13
222.416284658
23
78.5
33
0
0
SOLID
5
8D
100
AcDbEntity
8
Comments
6
CONTINUOUS
62
7
370
0
100
AcDbTrace
10
222
20
88
30
0
11
222.416284658
21
85.5
31
0
12
221.583715342
22
85.5
32
0
13
221.583715342
23
85.5
33
0
0
MTEXT
5
8E
100
AcDbEntity
8
Comments
6
CONTINUOUS
62
7
370
0
100
AcDbMText
10
220.125
20
82
30
0
40
2.5
41
2.5
71
5
72
1
1
12
7
standard
210
0
220
0
230
1
50
90
73
2
44
1
0
LINE
5
8F
100
AcDbEntity
8
Comments
6
CONTINUOUS
62
7
370
0
100
AcDbLine
10
226.075
20
76
11
220.75
21
76
0
LINE
5
90
100
AcDbEntity
8
Comments
6
CONTINUOUS
62
7
370
0
100
AcDbLine
10
227.375
20
88
11
220.75
21
88
0
ENDBLK
5
5A
330
58
100
AcDbEntity
8
0
100
AcDbBlockEnd
0
BLOCK
5
5C
330
5B
100
AcDbEntity
8
0
100
AcDbBlockBegin
2
*D1
70
1
10
0
20
0
3
*D1
1

0
LINE
5
91
100
AcDbEntity
8
Comments
6
CONTINUOUS
62
7
370
0
100
AcDbLine
10
-1.1481063742e-16
20
-0.625
11
-2.06659147356e-15
21
-11.25
0
LINE
5
92
100
AcDbEntity
8
Comments
6
CONTINUOUS
62
7
370
0
100
AcDbLine
10
270
20
-0.625
11
270
21
-11.25
0
LINE
5
93
100
AcDbEntity
8
Comments
6
CONTINUOUS
62
7
370
0
100
AcDbLine
10
-1.83697019872e-15
20
-10
11
270
21
-10
0
SOLID
5
94
100
AcDbEntity
8
Comments
6
CONTINUOUS
62
7
370
0
100
AcDbTrace
10
-1.83697019872e-15
20
-10
30
0
11
2.5
21
-9.58371534223
31
0
12
2.5
22
-10.4162846578
32
0
13
2.5
23
-10.4162846578
33
0
0
SOLID
5
95
100
AcDbEntity
8
Comments
6
CONTINUOUS
62
7
370
0
100
AcDbTrace
10
270
20
-10
30
0
11
267.5
21
-10.4162846578
31
0
12
267.5
22
-9.58371534223
32
0
13
267.5
23
-9.58371534223
33
0
0
MTEXT
5
96
100
AcDbEntity
8
Comments
6
CONTINUOUS
62
7
370
0
100
AcDbMText
10
135
20
-8.125
30
0
40
2.5
41
5
71
5
72
1
1
270
7
standard
210
0
220
0
230
1
50
0
73
2
44
1
0
ENDBLK
5
5D
330
5B
100
AcDbEntity
8
0
100
AcDbBlockEnd
0
BLOCK
5
5F
330
5E
100
AcDbEntity
8
0
100
AcDbBlockBegin
2
*D7
70
1
10
0
20
0
3
*D7
1

0
LINE
5
97
100
AcDbEntity
8
Comments
6
CONTINUOUS
62
7
370
0
100
AcDbLine
10
226.7
20
71
11
240
21
71
0
SOLID
5
98
100
AcDbEntity
8
Comments
6
CONTINUOUS
62
7
370
0
100
AcDbTrace
10
226.7
20
71
30
0
11
229.2
21
71.4162846578
31
0
12
229.2
22
70.5837153422
32
0
13
229.2
23
70.5837153422
33
0
0
SOLID
5
99
100
AcDbEntity
8
Comments
6
CONTINUOUS
62
7
370
0
100
AcDbTrace
10
240
20
71
30
0
11
237.5
21
70.5837153422
31
0
12
237.5
22
71.4162846578
32
0
13
237.5
23
71.4162846578
33
0
0
MTEXT
5
9A
100
AcDbEntity
8
Comments
6
CONTINUOUS
62
7
370
0
100
AcDbMText
10
233.35
20
72.875
30
0
40
2.5
41
5.27777777778
71
5
72
1
1
13.3
7
standard
210
0
220
0
230
1
50
0
73
2
44
1
0
LINE
5
9B
100
AcDbEntity
8
Comments
6
CONTINUOUS
62
7
370
0
100
AcDbLine
10
226.7
20
75.375
11
226.7
21
69.75
0
LINE
5
9C
100
AcDbEntity
8
Comments
6
CONTINUOUS
62
7
370
0
100
AcDbLine
10
240
20
75.375
11
240
21
69.75
0
ENDBLK
5
60
330
5E
100
AcDbEntity
8
0
100
AcDbBlockEnd
0
BLOCK
5
62
330
61
100
AcDbEntity
8
0
100
AcDbBlockBegin
2
*D11
70
1
10
0
20
0
3
*D11
1

0
LINE
5
9D
100
AcDbEntity
8
Comments
6
CONTINUOUS
62
7
370
0
100
AcDbLine
10
101
20
91
11
240
21
91
0
SOLID
5
9E
100
AcDbEntity
8
Comments
6
CONTINUOUS
62
7
370
0
100
AcDbTrace
10
101
20
91
30
0
11
103.5
21
91.4162846578
31
0
12
103.5
22
90.5837153422
32
0
13
103.5
23
90.5837153422
33
0
0
SOLID
5
9F
100
AcDbEntity
8
Comments
6
CONTINUOUS
62
7
370
0
100
AcDbTrace
10
240
20
91
30
0
11
237.5
21
90.5837153422
31
0
12
237.5
22
91.4162846578
32
0
13
237.5
23
91.4162846578
33
0
0
MTEXT
5
A0
100
AcDbEntity
8
Comments
6
CONTINUOUS
62
7
370
0
100
AcDbMText
10
170.5
20
92.875
30
0
40
2.5
41
4.44444444444
71
5
72
1
1
139
7
standard
210
0
220
0
230
1
50
0
73
2
44
1
0
LINE
5
A1
100
AcDbEntity
8
Comments
6
CONTINUOUS
62
7
370
0
100
AcDbLine
10
101
20
88.625
11
101
21
92.25
0
LINE
5
A2
100
AcDbEntity
8
Comments
6
CONTINUOUS
62
7
370
0
100
AcDbLine
10
240
20
88.625
11
240
21
92.25
0
ENDBLK
5
63
330
61
100
AcDbEntity
8
0
100
AcDbBlockEnd
0
BLOCK
5
65
330
64
100
AcDbEntity
8
0
100
AcDbBlockBegin
2
*D4
70
1
10
0
20
0
3
*D4
1

0
LINE
5
A3
100
AcDbEntity
8
Comments
6
CONTINUOUS
62
7
370
0
100
AcDbLine
10
214
20
39
11
214
21
88
0
SOLID
5
A4
100
AcDbEntity
8
Comments
6
CONTINUOUS
62
7
370
0
100
AcDbTrace
10
214
20
39
30
0
11
213.583715342
21
41.5
31
0
12
214.416284658
22
41.5
32
0
13
214.416284658
23
41.5
33
0
0
SOLID
5
A5
100
AcDbEntity
8
Comments
6
CONTINUOUS
62
7
370
0
100
AcDbTrace
10
214
20
88
30
0
11
214.416284658
21
85.5
31
0
12
213.583715342
22
85.5
32
0
13
213.583715342
23
85.5
33
0
0
MTEXT
5
A6
100
AcDbEntity
8
Comments
6
CONTINUOUS
62
7
370
0
100
AcDbMText
10
212.125
20
63.5
30
0
40
2.5
41
3.33333333333
71
5
72
1
1
49
7
standard
210
0
220
0
230
1
50
90
73
2
44
1
0
LINE
5
A7
100
AcDbEntity
8
Comments
6
CONTINUOUS
62
7
370
0
100
AcDbLine
10
225.075
20
39
11
212.75
21
39
0
LINE
5
A8
100
AcDbEntity
8
Comments
6
CONTINUOUS
62
7
370
0
100
AcDbLine
10
228.375
20
88
11
212.75
21
88
0
ENDBLK
5
66
330
64
100
AcDbEntity
8
0
100
AcDbBlockEnd
0
BLOCK
5
68
330
67
100
AcDbEntity
8
0
100
AcDbBlockBegin
2
*D2
70
1
10
0
20
0
3
*D2
1

0
LINE
5
A9
100
AcDbEntity
8
Comments
6
CONTINUOUS
62
7
370
0
100
AcDbLine
10
129
20
76
11
129
21
88
0
SOLID
5
AA
100
AcDbEntity
8
Comments
6
CONTINUOUS
62
7
370
0
100
AcDbTrace
10
129
20
76
30
0
11
128.583715342
21
78.5
31
0
12
129.416284658
22
78.5
32
0
13
129.416284658
23
78.5
33
0
0
SOLID
5
AB
100
AcDbEntity
8
Comments
6
CONTINUOUS
62
7
370
0
100
AcDbTrace
10
129
20
88
30
0
11
129.416284658
21
85.5
31
0
12
128.583715342
22
85.5
32
0
13
128.583715342
23
85.5
33
0
0
MTEXT
5
AC
100
AcDbEntity
8
Comments
6
CONTINUOUS
62
7
370
0
100
AcDbMText
10
127.125
20
82
30
0
40
2.5
41
2.5
71
5
72
1
1
12
7
standard
210
0
220
0
230
1
50
90
73
2
44
1
0
LINE
5
AD
100
AcDbEntity
8
Comments
6
CONTINUOUS
62
7
370
0
100
AcDbLine
10
115.625
20
76
11
130.25
21
76
0
LINE
5
AE
100
AcDbEntity
8
Comments
6
CONTINUOUS
62
7
370
0
100
AcDbLine
10
115.625
20
88
11
130.25
21
88
0
ENDBLK
5
69
330
67
100
AcDbEntity
8
0
100
AcDbBlockEnd
0
BLOCK
5
6B
330
6A
100
AcDbEntity
8
0
100
AcDbBlockBegin
2
*D10
70
1
10
0
20
0
3
*D10
1

0
LINE
5
AF
100
AcDbEntity
8
Comments
6
CONTINUOUS
62
7
370
0
100
AcDbLine
10
270.625
20
0
11
301.25
21
0
0
LINE
5
B0
100
AcDbEntity
8
Comments
6
CONTINUOUS
62
7
370
0
100
AcDbLine
10
270.625
20
180
11
301.25
21
180
0
LINE
5
B1
100
AcDbEntity
8
Comments
6
CONTINUOUS
62
7
370
0
100
AcDbLine
10
300
20
0
11
300
21
180
0
SOLID
5
B2
100
AcDbEntity
8
Comments
6
CONTINUOUS
62
7
370
0
100
AcDbTrace
10
300
20
0
30
0
11
299.583715342
21
2.5
31
0
12
300.416284657
22
2.5
32
0
13
300.416284657
23
2.5
33
0
0
SOLID
5
B3
100
AcDbEntity
8
Comments
6
CONTINUOUS
62
7
370
0
100
AcDbTrace
10
300
20
180
30
0
11
300.416284657
21
177.5
31
0
12
299.583715342
22
177.5
32
0
13
299.583715342
23
177.5
33
0
0
MTEXT
5
B4
100
AcDbEntity
8
Comments
6
CONTINUOUS
62
7
370
0
100
AcDbMText
10
298.125
20
90
30
0
40
2.5
41
4.44444444444
71
5
72
1
1
180
7
standard
210
0
220
0
230
1
50
90
73
2
44
1
0
ENDBLK
5
6C
330
6A
100
AcDbEntity
8
0
100
AcDbBlockEnd
0
ENDSEC
0
SECTION
2
ENTITIES
0
LINE
5
B5
100
AcDbEntity
8
Cutting
6
ByLayer
62
256
370
-1
100
AcDbLine
10
0
20
0
11
270
21
0
0
DIMENSION
5
B6
100
AcDbEntity
8
Comments
6
ByLayer
62
256
370
-1
100
AcDbDimension
2
*D1
10
270
20
-10
30
0
11
135
21
-8.125
31
0
70
33
71
5
72
0
3
Standard
53
0
210
0
220
0
230
1
100
AcDbAlignedDimension
13
0
23
0
33
0
14
270
24
0
34
0
0
LINE
5
B7
100
AcDbEntity
8
Line_Engraving
6
ByLayer
62
256
370
-1
100
AcDbLine
10
267
20
170
11
256
21
170
0
LINE
5
B8
100
AcDbEntity
8
Line_Engraving
6
ByLayer
62
256
370
-1
100
AcDbLine
10
256
20
170
11
256
21
173
0
LINE
5
B9
100
AcDbEntity
8
Line_Engraving
6
ByLayer
62
256
370
-1
100
AcDbLine
10
3
20
170
11
13
21
170
0
LINE
5
BA
100
AcDbEntity
8
Line_Engraving
6
ByLayer
62
256
370
-1
100
AcDbLine
10
13
20
170
11
13
21
173
0
LINE
5
BB
100
AcDbEntity
8
Line_Engraving
6
ByLayer
62
256
370
-1
100
AcDbLine
10
101
20
30
11
101
21
88
0
LINE
5
BC
100
AcDbEntity
8
Line_Engraving
6
ByLayer
62
256
370
-1
100
AcDbLine
10
101
20
88
11
240
21
88
0
LINE
5
BD
100
AcDbEntity
8
Line_Engraving
6
ByLayer
62
256
370
-1
100
AcDbLine
10
240
20
30
11
101
21
30
0
LINE
5
BE
100
AcDbEntity
8
Line_Engraving
6
ByLayer
62
256
370
-1
100
AcDbLine
10
240
20
88
11
240
21
30
0
LINE
5
BF
100
AcDbEntity
8
Line_Engraving
6
ByLayer
62
256
370
-1
100
AcDbLine
10
101
20
80
11
240
21
80
0
CIRCLE
5
C0
100
AcDbEntity
8
Cutting
6
ByLayer
62
256
370
-1
100
AcDbCircle
10
115
20
76
40
1.7
0
DIMENSION
5
C1
100
AcDbEntity
8
Comments
6
ByLayer
62
256
370
-1
100
AcDbDimension
2
*D2
10
129
20
88
30
0
11
127.125
21
82
31
0
70
32
71
5
72
0
3
Standard
53
0
210
0
220
0
230
1
100
AcDbAlignedDimension
13
115
23
76
33
0
14
115
24
88
34
0
50
90
100
AcDbRotatedDimension
0
DIMENSION
5
C2
100
AcDbEntity
8
Comments
6
ByLayer
62
256
370
-1
100
AcDbDimension
2
*D3
10
240
20
66
30
0
11
177.5
21
67.875
31
0
70
32
71
5
72
0
3
Standard
53
0
210
0
220
0
230
1
100
AcDbAlignedDimension
13
115
23
76
33
0
14
240
24
76
34
0
100
AcDbRotatedDimension
0
CIRCLE
5
C3
100
AcDbEntity
8
Cutting
6
ByLayer
62
256
370
-1
100
AcDbCircle
10
225.7
20
39
40
1.7
0
DIMENSION
5
C4
100
AcDbEntity
8
Comments
6
ByLayer
62
256
370
-1
100
AcDbDimension
2
*D4
10
214
20
88
30
0
11
212.125
21
63.5
31
0
70
32
71
5
72
0
3
Standard
53
0
210
0
220
0
230
1
100
AcDbAlignedDimension
13
225.7
23
39
33
0
14
229
24
88
34
0
50
90
100
AcDbRotatedDimension
0
DIMENSION
5
C5
100
AcDbEntity
8
Comments
6
ByLayer
62
256
370
-1
100
AcDbDimension
2
*D5
10
240
20
35
30
0
11
232.85
21
36.875
31
0
70
32
71
5
72
0
3
Standard
53
0
210
0
220
0
230
1
100
AcDbAlignedDimension
13
225.7
23
39
33
0
14
240
24
39
34
0
100
AcDbRotatedDimension
0
CIRCLE
5
C6
100
AcDbEntity
8
Cutting
6
ByLayer
62
256
370
-1
100
AcDbCircle
10
226.7
20
76
40
1.7
0
DIMENSION
5
C7
100
AcDbEntity
8
Comments
6
ByLayer
62
256
370
-1
100
AcDbDimension
2
*D6
10
222
20
88
30
0
11
220.125
21
82
31
0
70
32
71
5
72
0
3
Standard
53
0
210
0
220
0
230
1
100
AcDbAlignedDimension
13
226.7
23
76
33
0
14
228
24
88
34
0
50
90
100
AcDbRotatedDimension
0
DIMENSION
5
C8
100
AcDbEntity
8
Comments
6
ByLayer
62
256
370
-1
100
AcDbDimension
2
*D7
10
240
20
71
30
0
11
233.35
21
72.875
31
0
70
32
71
5
72
0
3
Standard
53
0
210
0
220
0
230
1
100
AcDbAlignedDimension
13
226.7
23
76
33
0
14
240
24
76
34
0
100
AcDbRotatedDimension
0
DIMENSION
5
C9
100
AcDbEntity
8
Comments
6
ByLayer
62
256
370
-1
100
AcDbDimension
2
*D8
10
106
20
88
30
0
11
104.125
21
63.5
31
0
70
32
71
5
72
0
3
Standard
53
0
210
0
220
0
230
1
100
AcDbAlignedDimension
13
120.7
23
39
33
0
14
114.2
24
88
34
0
50
90
100
AcDbRotatedDimension
0
CIRCLE
5
CA
100
AcDbEntity
8
Cutting
6
ByLayer
62
256
370
-1
100
AcDbCircle
10
120.7
20
39
40
1.7
0
DIMENSION
5
CB
100
AcDbEntity
8
Comments
6
ByLayer
62
256
370
-1
100
AcDbDimension
2
*D9
10
240
20
31
30
0
11
180.35
21
32.875
31
0
70
32
71
5
72
0
3
Standard
53
0
210
0
220
0
230
1
100
AcDbAlignedDimension
13
120.7
23
39
33
0
14
240
24
39
34
0
100
AcDbRotatedDimension
0
LINE
5
CC
100
AcDbEntity
8
Line_Engraving
6
ByLayer
62
256
370
-1
100
AcDbLine
10
3
20
0
11
3
21
173
0
LINE
5
CD
100
AcDbEntity
8
Line_Engraving
6
ByLayer
62
256
370
-1
100
AcDbLine
10
267
20
173
11
267
21
0
0
LINE
5
CE
100
AcDbEntity
8
Cutting
6
ByLayer
62
256
370
-1
100
AcDbLine
10
0
20
180
11
0
21
0
0
LINE
5
CF
100
AcDbEntity
8
Cutting
6
ByLayer
62
256
370
-1
100
AcDbLine
10
0
20
180
11
13
21
180
0
LINE
5
D0
100
AcDbEntity
8
Cutting
6
ByLayer
62
256
370
-1
100
AcDbLine
10
13
20
180
11
13
21
177
0
LINE
5
D1
100
AcDbEntity
8
Cutting
6
ByLayer
62
256
370
-1
100
AcDbLine
10
13
20
177
11
3
21
177
0
LINE
5
D2
100
AcDbEntity
8
Cutting
6
ByLayer
62
256
370
-1
100
AcDbLine
10
3
20
177
11
3
21
173
0
LINE
5
D3
100
AcDbEntity
8
Cutting
6
ByLayer
62
256
370
-1
100
AcDbLine
10
267
20
173
11
3
21
173
0
LINE
5
D4
100
AcDbEntity
8
Cutting
6
ByLayer
62
256
370
-1
100
AcDbLine
10
270
20
0
11
270
21
180
0
DIMENSION
5
D5
100
AcDbEntity
8
Comments
6
ByLayer
62
256
370
-1
100
AcDbDimension
2
*D10
10
300
20
180
30
0
11
298.125
21
90
31
0
70
33
71
5
72
0
3
Standard
53
0
210
0
220
0
230
1
100
AcDbAlignedDimension
13
270
23
0
33
0
14
270
24
180
34
0
0
LINE
5
D6
100
AcDbEntity
8
Cutting
6
ByLayer
62
256
370
-1
100
AcDbLine
10
270
20
180
11
256
21
180
0
LINE
5
D7
100
AcDbEntity
8
Cutting
6
ByLayer
62
256
370
-1
100
AcDbLine
10
256
20
180
11
256
21
177
0
LINE
5
D8
100
AcDbEntity
8
Cutting
6
ByLayer
62
256
370
-1
100
AcDbLine
10
256
20
177
11
267
21
177
0
LINE
5
D9
100
AcDbEntity
8
Cutting
6
ByLayer
62
256
370
-1
100
AcDbLine
10
267
20
177
11
267
21
173
0
DIMENSION
5
DA
100
AcDbEntity
8
Comments
6
ByLayer
62
256
370
-1
100
AcDbDimension
2
*D11
10
240
20
91
30
0
11
170.5
21
92.875
31
0
70
32
71
5
3
Standard
53
0
210
0
220
0
230
1
100
AcDbAlignedDimension
13
101
23
88
33
0
14
240
24
88
34
0
100
AcDbRotatedDimension
0
DIMENSION
5
DB
100
AcDbEntity
8
Comments
6
ByLayer
62
256
370
-1
100
AcDbDimension
2
*D12
10
86
20
30
30
0
11
84.125
21
59
31
0
70
32
71
5
3
Standard
53
0
210
0
220
0
230
1
100
AcDbAlignedDimension
13
101
23
88
33
0
14
101
24
30
34
0
50
90
100
AcDbRotatedDimension
0
ENDSEC
0
SECTION
2
OBJECTS
0
DICTIONARY
5
C
330
0
100
AcDbDictionary
281
1
3
ACAD_GROUP
350
D
0
DICTIONARY
5
D
330
C
100
AcDbDictionary
281
1
0
ENDSEC
0
EOF
